<svg width="155" height="31" viewBox="0 0 155 31" fill="none" xmlns="http://www.w3.org/2000/svg">
    <path d="M104.296 8.16333C106.629 8.16333 109.067 8.72875 110.657 9.64756V15.0544C109.244 14.1709 106.806 13.4288 104.579 13.4288C103.06 13.4288 102.211 13.8529 102.211 14.595C102.211 15.3724 103.166 15.7612 105.251 16.2559C108.537 17.0333 112 18.1995 112 22.4048C112 26.4334 108.82 28.9778 103.201 28.9778C100.268 28.9778 97.7942 28.2711 96.0979 27.2462V21.4153C97.8295 22.6875 100.02 23.7124 102.918 23.7124C104.65 23.7124 105.639 23.253 105.639 22.4402C105.639 21.5214 104.402 21.2387 101.929 20.5319C98.8543 19.6838 95.9212 18.3055 95.9212 14.6657C95.9212 10.9197 98.9603 8.16333 104.296 8.16333Z" fill="#1D184E"/>
    <path d="M82.1386 28.4475V8.69311H87.3687L88.0048 11.5909H88.0755C89.383 9.25853 91.574 8.48108 93.3763 8.48108C93.9771 8.48108 94.4365 8.51642 94.8959 8.65777V14.7714C94.3305 14.63 93.7297 14.5593 93.1643 14.5593C90.8673 14.5593 88.7116 15.7609 88.7116 19.3654V28.4475H82.1386Z" fill="#1D184E"/>
    <path d="M70.6778 28.9778C64.7409 28.9778 60.0762 24.7372 60.0762 18.5529C60.0762 12.3333 64.7763 8.16333 70.6778 8.16333C76.6148 8.16333 81.2088 12.3333 81.2088 18.5529C81.2088 24.7372 76.6148 28.9778 70.6778 28.9778ZM66.7199 18.5529C66.7199 21.4507 68.6635 23.1116 70.6778 23.1116C72.6568 23.1116 74.6004 21.4507 74.6004 18.5529C74.6004 15.6551 72.6568 14.0296 70.6778 14.0296C68.6635 14.0296 66.7199 15.6551 66.7199 18.5529Z" fill="#1D184E"/>
    <path d="M51.9478 28.4475V-0.00012207H58.5208V28.4475H51.9478Z" fill="#1D184E"/>
    <path d="M40.6397 28.9421C34.7028 28.9421 30.0381 24.7014 30.0381 18.5171C30.0381 12.2975 34.7381 8.12756 40.6397 8.12756C46.5766 8.12756 51.1706 12.2975 51.1706 18.5171C51.1706 24.7014 46.5766 28.9421 40.6397 28.9421ZM36.6818 18.5171C36.6818 21.4149 38.6254 23.0758 40.6397 23.0758C42.6187 23.0758 44.5623 21.4149 44.5623 18.5171C44.5623 15.6194 42.6187 13.9938 40.6397 13.9938C38.6254 13.9938 36.6818 15.6194 36.6818 18.5171Z" fill="#1D184E"/>
    <g clip-path="url(#clip0_4560_2570)">
    <path d="M27.6205 8.25901C25.9019 5.17282 23.1953 2.75436 19.9359 1.3926C16.6765 0.0308475 13.0538 -0.195056 9.65043 0.751227C6.2471 1.69751 3.26095 3.76098 1.17227 6.60975C-0.916411 9.45853 -1.98623 12.927 -1.86511 16.4574L8.14878 16.1138C8.10475 14.8306 8.49362 13.5698 9.25284 12.5343C10.0121 11.4988 11.0975 10.7488 12.3346 10.4048C13.5716 10.0608 14.8885 10.1429 16.0732 10.6379C17.258 11.1329 18.2418 12.012 18.8665 13.1338L27.6205 8.25901Z" fill="#1D184E"/>
    <path d="M3.80879 28.0302C6.23466 30.048 9.21097 31.2903 12.3516 31.5958C15.4922 31.9012 18.6521 31.2558 21.4213 29.7433L16.6057 20.9265C15.6037 21.4738 14.4604 21.7073 13.3241 21.5968C12.1878 21.4863 11.1109 21.0368 10.2332 20.3067L3.80879 28.0302Z" fill="#2196F3"/>
    <path d="M20.1713 30.504C22.9899 29.289 25.3919 27.2766 27.0816 24.7143C28.7714 22.152 29.6752 19.1517 29.6819 16.0824L19.5018 16.0601C19.4994 17.1445 19.1801 18.2045 18.5831 19.1098C17.9861 20.0151 17.1375 20.7261 16.1417 21.1553L20.1713 30.504Z" fill="#E74C49"/>
    <path d="M3.85091 28.4027C1.97973 26.9321 0.46634 25.0564 -0.575448 22.9167C-1.61724 20.7769 -2.1603 18.4288 -2.1638 16.0489L8.15803 16.0337C8.15923 16.8531 8.34621 17.6616 8.7049 18.3983C9.06359 19.135 9.58465 19.7808 10.2289 20.2872L3.85091 28.4027Z" fill="#5E5AFB"/>
    </g>
    <path d="M154.38 3.72803V29H148.224V3.72803H154.38Z" fill="#1D184E"/>
    <path d="M139.196 24.536H129.764L128.252 29H121.808L130.952 3.72803H138.08L147.224 29H140.708L139.196 24.536ZM137.612 19.784L134.48 10.532L131.384 19.784H137.612Z" fill="#1D184E"/>
    <defs>
    <clipPath id="clip0_4560_2570">
    <rect width="28.271" height="28.2705" rx="14.1353" transform="matrix(-1 0 0 1 28.2708 1.76685)" fill="white"/>
    </clipPath>
    </defs>
    </svg>
    