<svg xmlns="http://www.w3.org/2000/svg" fill="none" viewBox="0 0 1135 120">
    <path fill="#03012C" d="M187.6 13.6l-37.4 92.8h-15.6L97.2 13.6H111a5.8 5.8 0 015.8 4L138.7 74l2 6a118 118 0 012 7 121.2 121.2 0 013.6-13L168 17.5a6 6 0 012-2.6c1-.9 2.3-1.3 3.7-1.3h14zm59 13.8V53h32.5v13.3h-32.5v26.2h41.2v13.8h-58.5V13.6h58.5v13.8h-41.2zm116.6 30.4c3.2 0 6-.4 8.4-1.3 2.5-.8 4.4-1.9 6-3.3a12 12 0 003.5-5.1c.8-2 1.2-4.1 1.2-6.5 0-4.7-1.6-8.3-4.7-10.8-3-2.6-7.8-3.8-14.2-3.8h-11v30.8h10.8zm44.3 48.6H392c-3 0-5.1-1.2-6.4-3.5L366 73.2a6.8 6.8 0 00-2.4-2.3c-.9-.5-2.1-.8-3.8-.8h-7.4v36.3H335V13.6h28.3c6.3 0 11.7.7 16.2 2s8.2 3.1 11 5.5c3 2.3 5.1 5.1 6.5 8.4 1.3 3.3 2 6.9 2 10.8a27.4 27.4 0 01-5.4 16.4 26 26 0 01-6.4 6c-2.5 1.7-5.4 3-8.6 4a16 16 0 015.6 5.4l23.2 34.3zm77.7-35.9v35.9H468v-36l-33.8-56.8h15.2c1.5 0 2.7.4 3.5 1.1 1 .8 1.7 1.7 2.3 2.8l16.9 31a88.3 88.3 0 014.6 10 61.4 61.4 0 014.4-10l17-31c.4-1 1-1.8 2-2.6 1-.9 2.2-1.3 3.6-1.3H519l-33.8 56.9zm285.1.9L759 40.5a66.6 66.6 0 01-3.5-11 128.5 128.5 0 01-3.5 11.1l-11.2 30.8h29.5zm30.5 35h-13.4c-1.5 0-2.7-.4-3.6-1.1-1-.8-1.7-1.7-2.2-2.8l-6.9-19h-38.4l-7 19a6 6 0 01-2 2.7c-1 .8-2.1 1.2-3.6 1.2h-13.5l36.5-92.8h17.6l36.4 92.8zm97.4-78.6h-28v78.6h-17.3V27.8h-28V13.6h73.3v14.2zM1003 84.5c.9 0 1.7.4 2.4 1l6.8 7.5a37.3 37.3 0 01-14 10.7c-5.4 2.5-12 3.7-19.7 3.7a47 47 0 01-18.6-3.5A40.9 40.9 0 01937 79a56.9 56.9 0 01.3-38.1A42.4 42.4 0 01961 16a47.6 47.6 0 0118.5-3.5 45.3 45.3 0 0131.4 12l-5.8 8c-.3.6-.8 1-1.3 1.4-.5.4-1.3.6-2.2.6a5 5 0 01-2-.5 43 43 0 01-5-3.2 26.6 26.6 0 00-8.6-3 32 32 0 00-18 1.6 24.4 24.4 0 00-8.8 6.4 29.2 29.2 0 00-5.8 10.3c-1.3 4-2 8.6-2 13.8 0 5.2.7 9.8 2.2 13.9 1.5 4 3.5 7.5 6 10.3a25.8 25.8 0 0020 8.5c2.3 0 4.4 0 6.3-.3a26.3 26.3 0 009.8-3.4c1.4-.9 2.9-2 4.3-3.2l1.3-1a3 3 0 011.5-.3zm131.3-70.9v92.8H1117V65.8h-43.6v40.6h-17.3V13.6h17.3v40h43.5v-40h17.4zM.7 27.3h64.4l-5.6-13.8H.7v92.7h66.5l-5.5-13.8H18V66.2h33.2l-5.4-13.3H18.1V27.2m652.3-13.5a6 6 0 00-3.8 1.2c-1 .7-1.7 1.7-2 2.7L649 73c-.7 2.7-1.3 5.8-1.9 9.1-.7-3.4-1.5-6.5-2.4-9.1l-19.4-59.3h-9.5c-1.5 0-2.7.4-3.7 1.2-1 .8-1.7 1.7-2 2.7L591.8 73a65.3 65.3 0 00-2.4 9.5 253.8 253.8 0 00-2-9.5l-15.8-55.4a5 5 0 00-2-2.8 6 6 0 00-3.7-1h-14.4l28.7 92.5h15.6L616.2 43a30 30 0 001.6-5.6 42 42 0 001.6 5.6l20.2 63.3H655l29-92.6h-13.5z" />
</svg>