<svg style="width:100%;" width="150" height="36" viewBox="0 0 150 36" fill="none" xmlns="http://www.w3.org/2000/svg"><path d="M14.8074 2.18945L12.0718 8.4256L9.51934 2.18945H0L12.8324 35.5284H22.3879L16.1944 18.0174L24.1073 2.18945H14.8074Z" fill="#555555"></path><path d="M146.482 2.18945H128.694V10.3964L128.731 24.0724H137.63V10.3964H141.022V24.0724H149.921V5.61749C149.91 3.50184 148.598 2.18945 146.482 2.18945Z" fill="#555555"></path><path d="M106.087 2.18945L103.971 6.16506L101.308 2.18945H91.2793L100.654 15.8655H92.7409V24.0724H115.936L109.8 14.8982H108.096C107.16 14.8982 105.26 14.1462 105.26 13.2236C105.26 12.3011 107.16 11.549 108.096 11.549H109.851L115.947 2.18945H106.087Z" fill="#555555"></path><path d="M117.257 11.5788C117.478 11.5752 117.696 11.5251 117.896 11.4318L122.053 6.48678C122.105 6.43138 122.167 6.3877 122.237 6.35866C122.307 6.32962 122.382 6.3159 122.458 6.31845H124.007C124.087 6.31964 124.166 6.34025 124.237 6.37853C124.308 6.41682 124.369 6.47166 124.414 6.53838C124.459 6.60509 124.488 6.68169 124.497 6.76173C124.506 6.84177 124.496 6.92285 124.467 6.99809L121.753 12.9083C121.725 12.9712 121.711 13.0389 121.711 13.1075C121.711 13.176 121.725 13.2439 121.753 13.3067L124.467 19.2169C124.502 19.2921 124.517 19.375 124.51 19.4577C124.504 19.5403 124.476 19.6199 124.43 19.6887C124.384 19.7574 124.32 19.8131 124.246 19.8503C124.172 19.8874 124.09 19.9048 124.007 19.9008H122.447C122.371 19.9031 122.296 19.8889 122.226 19.8591C122.156 19.8293 122.093 19.7846 122.042 19.7282L117.886 14.7853C117.688 14.6819 117.47 14.6231 117.247 14.6128V24.0724H126.182V2.18945H117.247L117.257 11.5788Z" fill="#555555"></path><path d="M39.7642 2.18945H25.0293V10.3964H34.2567V24.0724H43.1923V5.61749C43.1923 3.50184 41.8799 2.18945 39.7642 2.18945Z" fill="#555555"></path><path d="M59.2506 2.18945L56.9538 5.90941L54.3631 2.18945H45.647V24.0724H54.5825V16.9968L59.5063 24.0724H69.6094L61.9862 13.132L69.6094 2.18945H59.2506Z" fill="#555555"></path><path d="M79.248 0H70.3486V10.395H79.2842L75.1275 24.0711H83.9885L89.9711 2.18808H79.248V0Z" fill="#555555"></path><path d="M116.32 34.6799H110.625V29.0297H111.563V33.7382H112.677C112.848 32.1701 113.02 30.5892 113.199 28.9551L114.137 29.0361C113.97 30.6105 113.809 32.1573 113.642 33.736H115.375V29.019H116.32V34.6799Z" fill="#555555"></path><path d="M91.1192 34.673H86.7515L87.2821 29.9389H86.6216V29.0312H91.1192V34.673ZM90.154 29.9303C89.5596 29.9303 88.995 29.9197 88.4326 29.9431C88.3559 29.9431 88.2344 30.1051 88.2195 30.2031C88.1364 30.7826 88.0768 31.3663 88.0064 31.948C87.9361 32.5296 87.8829 33.1283 87.819 33.744H90.1476L90.154 29.9303Z" fill="#555555"></path><path d="M105.107 29.4469C104.38 30.3439 103.696 31.194 102.993 32.0654L105.124 34.1767C104.855 34.4047 104.623 34.6029 104.397 34.7946L101.898 32.321L99.8228 34.8777L99.0537 34.2662L101.195 31.6243L99.0644 29.5726L99.7887 28.8418L102.305 31.3452C102.978 30.5207 103.643 29.7025 104.342 28.8482L105.107 29.4469Z" fill="#555555"></path><path d="M77.203 34.6744H76.2826V29.9573H74.152V34.668H73.1911V29.9509L72.6138 29.9126V29.0199C72.7203 29.0199 72.8268 28.9943 72.9376 28.9922C74.2543 28.9922 75.5689 28.9922 76.8856 28.9922C77.0986 28.9922 77.2328 28.9922 77.2307 29.2755C77.2201 30.9991 77.2307 32.7249 77.2307 34.4485C77.2267 34.5244 77.2174 34.5998 77.203 34.6744Z" fill="#555555"></path><path d="M150 34.6805H145.952V33.7771H147.143C146.983 32.1813 146.828 30.6367 146.67 29.0473L147.631 28.9492C147.733 29.9378 147.844 30.8838 147.929 31.8297C147.983 32.356 148.042 32.8801 148.078 33.4085C148.095 33.677 148.187 33.8069 148.477 33.7707C148.661 33.7599 148.845 33.7599 149.029 33.7707V29.0217H150V34.6805Z" fill="#555555"></path><path d="M143.367 29.9303H141.488V29.0312H144.334V33.7675H145.436V34.6751H140.864V33.7653H141.778C142.217 33.7653 142.656 33.7781 143.094 33.7653C143.188 33.7653 143.354 33.6354 143.357 33.5651C143.371 32.3634 143.367 31.1682 143.367 29.9303Z" fill="#555555"></path><path d="M82.6913 34.6804H78.1191V33.7792H80.5863V29.9442H78.7413V29.0067H79.7277C80.2369 29.0067 80.744 29.0195 81.2511 29.0067C81.5131 28.996 81.5877 29.0855 81.5856 29.3412C81.5856 30.6856 81.5856 32.0321 81.5728 33.3765C81.5728 33.6897 81.6537 33.8175 81.9776 33.7835C82.2153 33.7705 82.4536 33.7705 82.6913 33.7835V34.6804Z" fill="#555555"></path><path d="M64.7456 29.9292H62.5938V27.8945H63.5355V28.9897H66.1113L64.0596 34.8572L63.1349 34.5461C63.6697 33.0121 64.1981 31.5016 64.7456 29.9292Z" fill="#555555"></path><path d="M121.795 34.8593L120.871 34.5461L122.477 29.9442H120.33V27.8945H121.271V28.9918H123.845L121.795 34.8593Z" fill="#555555"></path><path d="M97.2854 29.9363H95.1548V27.8867H96.0773V28.9904H98.6532L96.6036 34.86L95.6768 34.5468C96.2158 33.0001 96.7357 31.4874 97.2854 29.9363Z" fill="#555555"></path><path d="M132.495 34.6781H131.564V29.9483H127.955V29.0215H132.495V34.6781Z" fill="#555555"></path><path d="M137.941 29.9305H137.11V34.6689H136.151V29.9348H133.62V29.0208C133.746 29.0208 133.859 29.0059 133.974 29.0059C135.173 29.0059 136.375 29.0059 137.574 29.0059C137.856 29.0059 137.981 29.0719 137.947 29.368C137.935 29.5553 137.933 29.7431 137.941 29.9305Z" fill="#555555"></path><path d="M108.196 29.9325H105.639C105.639 29.664 105.639 29.4148 105.639 29.1697C105.65 29.1305 105.671 29.095 105.701 29.0665C105.73 29.0381 105.766 29.0179 105.805 29.0078C106.909 29.0078 108.015 29.0078 109.131 29.0078V34.6815H108.198L108.196 29.9325Z" fill="#555555"></path><path d="M71.4206 34.6845H70.498V29.0215H71.4206V34.6845Z" fill="#555555"></path><path d="M139.954 34.6803H139.031V29.0215H139.954V34.6803Z" fill="#555555"></path><path d="M119.298 31.933H118.361V29.941H117.549V29.0312H119.298V31.933Z" fill="#555555"></path><path d="M94.1279 31.9231H93.1713V29.9332H92.3809V29C92.905 29 93.4206 29 93.9361 29C93.9794 29.0117 94.019 29.0343 94.0511 29.0656C94.0832 29.0969 94.1067 29.136 94.1194 29.179C94.13 30.0845 94.1279 30.9942 94.1279 31.9231Z" fill="#555555"></path><path d="M129.054 34.7605L128.102 34.6838C128.187 33.6185 128.272 32.566 128.362 31.4688L129.316 31.5348C129.229 32.6086 129.142 33.6717 129.054 34.7605Z" fill="#555555"></path><path d="M67.1826 28.2754L68.0945 28.4884L67.547 30.8896L66.6372 30.6936L67.1826 28.2754Z" fill="#555555"></path><path d="M68.7274 28.2754L69.6393 28.4884L69.0938 30.8832L68.1841 30.6893L68.7274 28.2754Z" fill="#555555"></path></svg>