<svg width="62" height="16" viewBox="0 0 62 16" fill="none" xmlns="http://www.w3.org/2000/svg">
    <path fill-rule="evenodd" clip-rule="evenodd"
        d="M10.3027 15.7566H10.1863C9.65105 15.7564 9.14455 15.5158 8.80845 15.1021L3.94178 9.1122C3.92816 9.09684 3.90648 9.09127 3.88707 9.09816C3.86766 9.10504 3.85443 9.12298 3.8537 9.14344V13.8432C3.85411 14.3508 3.65124 14.8377 3.2898 15.1966C2.92835 15.5555 2.43801 15.757 1.92685 15.7566C0.862679 15.7566 0 14.8999 0 13.8432V1.91335C0 0.856635 0.862679 9.581e-07 1.92685 9.581e-07C2.43801 -0.000412682 2.92835 0.201038 3.2898 0.559949C3.65124 0.918861 3.85411 1.40577 3.8537 1.91335V5.85405C3.8538 5.87479 3.8668 5.89331 3.88636 5.90059C3.90591 5.90787 3.92797 5.90241 3.94178 5.88685L8.486 0.613834C8.82231 0.223768 9.31374 -0.000534947 9.83086 9.581e-07C10.5251 0.000301911 11.1551 0.403711 11.4417 1.03159C11.7284 1.65947 11.6189 2.39581 11.1616 2.91453L7.31101 7.28789C7.24941 7.36055 7.24941 7.46669 7.31101 7.53935L11.6775 12.9014C12.1018 13.4279 12.1854 14.149 11.8924 14.7574C11.5995 15.3658 10.9818 15.754 10.3027 15.7566ZM22.5526 3.37662C23.0332 3.3762 23.4941 3.566 23.8333 3.904C24.1725 4.242 24.362 4.70033 24.36 5.1775L24.3269 10.8223C24.3033 13.8836 22.0147 16 18.5684 16C15.1221 16 12.7658 13.8836 12.7658 10.8223V5.1775C12.7654 4.70141 12.9557 4.24469 13.2947 3.90804C13.6337 3.57139 14.0937 3.38245 14.5731 3.38286H14.5841C15.0636 3.38245 15.5235 3.57139 15.8626 3.90804C16.2016 4.24469 16.3919 4.70141 16.3914 5.1775V10.6911C16.3914 11.9531 17.2754 12.8074 18.5684 12.8074C19.8613 12.8074 20.7532 11.9531 20.7532 10.6911V5.1775C20.7528 4.70141 20.9431 4.24469 21.2821 3.90804C21.6211 3.57139 22.081 3.38245 22.5605 3.38286L22.5526 3.37662ZM29.1553 10.9401H37.6208C37.827 10.9366 37.9963 10.7773 38.0109 10.573C38.3459 6.7401 35.9661 3.1477 31.8764 3.1477C28.2492 3.1477 25.5973 5.9201 25.5973 9.56716C25.5973 13.2142 28.2492 15.9819 31.8764 15.9819C33.0444 16.0044 34.1955 15.7025 35.2001 15.1104C35.6819 14.8195 35.9824 14.3059 35.9983 13.7462C36.0142 13.1865 35.7433 12.6569 35.2787 12.3396C34.7222 11.9584 33.9884 11.951 33.4242 12.3208C32.6936 12.7943 31.7864 12.9136 30.9568 12.6453C30.1273 12.377 29.4649 11.75 29.1553 10.9401ZM34.2358 8.4582H29.3597C29.2951 8.45766 29.2348 8.42586 29.1981 8.37298C29.1615 8.32011 29.1531 8.25282 29.1757 8.19268C29.5972 7.06654 30.5913 6.38711 31.8497 6.38711C33.2071 6.38711 34.0644 7.18993 34.4215 8.1958C34.4428 8.25583 34.4336 8.32242 34.3968 8.37452C34.3599 8.42662 34.3 8.4578 34.2358 8.4582ZM51.021 10.9401H42.5554C42.8651 11.75 43.5275 12.377 44.357 12.6453C45.1865 12.9136 46.0938 12.7943 46.8244 12.3208C47.3891 11.9508 48.1235 11.9582 48.6804 12.3396C49.1441 12.6577 49.4141 13.1872 49.3979 13.7466C49.3818 14.306 49.0815 14.8192 48.6002 15.1104C47.5957 15.7025 46.4446 16.0044 45.2766 15.9819C41.6494 15.9819 38.9975 13.2142 38.9975 9.56716C38.9975 5.9201 41.6494 3.1477 45.2766 3.1477C49.3662 3.1477 51.7461 6.7401 51.4111 10.573C51.3964 10.7773 51.2271 10.9366 51.021 10.9401ZM42.7599 8.4582H47.636C47.7001 8.4578 47.7601 8.42662 47.797 8.37452C47.8338 8.32242 47.843 8.25583 47.8216 8.1958C47.4646 7.18993 46.6073 6.38711 45.2499 6.38711C43.9915 6.38711 42.9974 7.06654 42.5759 8.19268C42.5533 8.25282 42.5617 8.32011 42.5983 8.37298C42.635 8.42586 42.6953 8.45766 42.7599 8.4582ZM60.4498 12.7168H57.2552C57.1875 12.7141 57.1261 12.6769 57.0925 12.6185C57.0589 12.5601 57.058 12.4887 57.09 12.4295L61.7255 3.95296C61.7914 3.83192 61.7884 3.68534 61.7174 3.56713C61.6464 3.44892 61.518 3.37661 61.3794 3.37661H53.4723C52.6276 3.37661 51.9427 4.05607 51.9418 4.89479C51.9418 5.29785 52.103 5.68441 52.3901 5.96941C52.6771 6.25442 53.0664 6.41453 53.4723 6.41453H56.346C56.4153 6.4149 56.4792 6.45141 56.5144 6.51066C56.5495 6.56991 56.5507 6.64316 56.5175 6.70349L51.8899 15.18C51.823 15.3007 51.8255 15.4475 51.8963 15.5659C51.9671 15.6844 52.0957 15.7568 52.2344 15.7563H60.4498C61.2951 15.7563 61.9803 15.0759 61.9803 14.2366C61.9803 13.3973 61.2951 12.7168 60.4498 12.7168Z"
        fill="black" />
</svg>
    