<svg
   xmlns:dc="http://purl.org/dc/elements/1.1/"
   xmlns:cc="http://creativecommons.org/ns#"
   xmlns:rdf="http://www.w3.org/1999/02/22-rdf-syntax-ns#"
   xmlns:svg="http://www.w3.org/2000/svg"
   xmlns="http://www.w3.org/2000/svg"
   xmlns:sodipodi="http://sodipodi.sourceforge.net/DTD/sodipodi-0.dtd"
   xmlns:inkscape="http://www.inkscape.org/namespaces/inkscape"
   version="1.1"
   id="svg2"
   xml:space="preserve"
   width="220"
   height="60"
   viewBox="0 0 220 59.999998"
   sodipodi:docname="רשות שדות התעופה בישראל.svg"
   inkscape:version="0.92.5 (2060ec1f9f, 2020-04-08)"><metadata
     id="metadata8"><rdf:RDF><cc:Work
         rdf:about=""><dc:format>image/svg+xml</dc:format><dc:type
           rdf:resource="http://purl.org/dc/dcmitype/StillImage" /><dc:title></dc:title></cc:Work></rdf:RDF></metadata><defs
     id="defs6" /><sodipodi:namedview
     pagecolor="#ffffff"
     bordercolor="#666666"
     borderopacity="1"
     objecttolerance="10"
     gridtolerance="10"
     guidetolerance="10"
     inkscape:pageopacity="0"
     inkscape:pageshadow="2"
     inkscape:window-width="2880"
     inkscape:window-height="1495"
     id="namedview4"
     showgrid="false"
     inkscape:zoom="7.4057154"
     inkscape:cx="92.499901"
     inkscape:cy="47.110015"
     inkscape:window-x="-13"
     inkscape:window-y="-13"
     inkscape:window-maximized="1"
     inkscape:current-layer="g10" /><g
     id="g10"
     inkscape:groupmode="layer"
     inkscape:label="CarRentalHe"
     transform="matrix(1.3333333,0,0,-1.3333333,-47.020267,107.49507)"><path
       inkscape:connector-curvature="0"
       id="path754"
       style="fill:#21315f;fill-opacity:1;fill-rule:nonzero;stroke:none;stroke-width:0.99639744"
       d="m 165.11839,80.621305 -7.4949,-9.91316 c 4.68905,-17.14501 19.50547,-13.72437 42.43756,-9.06622 0,0 -30.64818,-1.41987 -34.94266,18.97938" /><path
       inkscape:connector-curvature="0"
       id="path758"
       style="fill:#f2561a;fill-opacity:1;fill-rule:nonzero;stroke:none;stroke-width:0.99639744"
       d="m 161.52149,60.912965 c -2.30666,2.17015 -4.05732,5.24304 -5.20418,9.43788 h -10.82984 c 1.14685,-4.19484 2.89752,-7.26773 5.20418,-9.43788 z" /><path
       inkscape:connector-curvature="0"
       id="path762"
       style="fill:#21315f;fill-opacity:1;fill-rule:nonzero;stroke:none;stroke-width:0.99639744"
       d="m 165.65265,36.965645 7.49491,9.91315 c -4.68905,17.14502 -19.50547,13.72439 -42.43756,9.06622 0,0 30.64819,1.41987 34.94265,-18.97937" /><path
       inkscape:connector-curvature="0"
       id="path766"
       style="fill:#f2561a;fill-opacity:1;fill-rule:nonzero;stroke:none;stroke-width:0.99639744"
       d="m 169.24945,56.673985 c 2.30666,-2.17015 4.05734,-5.24304 5.20419,-9.43787 h 10.82984 c -1.14685,4.19483 -2.89753,7.26772 -5.20418,9.43787 z" /><g
       id="g2568"
       style="fill:#21315f;fill-opacity:1;stroke:none"
       transform="matrix(0.99639741,0,0,0.99639741,-392.10331,-702.83452)"><path
         d="m 433.0476,753.0062 0.324,2.316 h -2.573 l 0.379,2.713 h -0.096 l -0.826,-0.461 c -0.511,-0.279 -0.756,-0.729 -0.815,-1.148 l -0.322,-2.305 h 2.552 l -0.21,-1.501 c -0.116,-0.826 -0.553,-1.34 -1.359,-1.737 l -0.726,-0.365 -0.17,-1.211 h 0.204 l 1.126,0.536 c 1.298,0.622 2.281,1.512 2.512,3.163"
         style="fill:#21315f;fill-opacity:1;fill-rule:nonzero;stroke:none"
         id="path770"
         inkscape:connector-curvature="0" /><path
         d="m 438.9722,749.7035 c -0.308,0.633 -0.707,1.383 -1.145,2.166 l 0.684,0.515 c 0.552,0.418 0.834,0.825 0.921,1.447 l 0.209,1.491 h -2.166 l -0.154,-1.094 h 0.719 l -0.237,-1.694 c -0.023,-0.161 -0.114,-0.279 -0.175,-0.333 -0.761,1.234 -1.522,2.381 -2.083,3.121 h -1.695 l -0.018,-0.129 c 0.457,-0.568 0.952,-1.319 1.293,-1.791 l -0.638,-0.504 c -0.506,-0.396 -0.805,-0.847 -0.871,-1.319 l -0.284,-2.026 h 2.155 l 0.152,1.083 h -0.74 l 0.305,2.177 c 0.015,0.107 0.059,0.193 0.145,0.268 0.427,-0.622 1.516,-2.499 1.983,-3.528 h 1.619 z"
         style="fill:#21315f;fill-opacity:1;fill-rule:nonzero;stroke:none"
         id="path774"
         inkscape:connector-curvature="0" /><path
         d="m 443.7787,749.5534 0.528,3.775 c 0.227,1.619 -0.615,2.112 -1.988,2.112 -0.708,0 -1.536,-0.172 -1.973,-0.386 l -0.198,-1.415 c 0.437,0.364 1.303,0.654 1.785,0.654 0.708,0 0.953,-0.322 0.856,-1.008 l -0.522,-3.732 z"
         style="fill:#21315f;fill-opacity:1;fill-rule:nonzero;stroke:none"
         id="path778"
         inkscape:connector-curvature="0" /><path
         d="m 449.1508,753.3708 0.273,1.952 h -1.49 l -0.533,-3.807 h 0.096 l 0.821,0.579 c 0.477,0.343 0.773,0.847 0.833,1.276 m 2.449,-0.89 0.398,2.842 h -1.502 l -0.424,-3.035 c -0.179,-1.276 -1.25,-1.651 -2.172,-1.651 h -1.695 l 0.657,4.686 h -1.512 l -0.808,-5.769 h 3.421 c 1.554,0 3.319,0.654 3.637,2.927"
         style="fill:#21315f;fill-opacity:1;fill-rule:nonzero;stroke:none"
         id="path782"
         inkscape:connector-curvature="0" /><path
         d="m 454.0051,753.7354 0.222,1.587 h -1.512 l -0.168,-1.201 -0.329,-2.348 h 0.097 l 0.788,0.654 c 0.459,0.364 0.842,0.879 0.902,1.308"
         style="fill:#21315f;fill-opacity:1;fill-rule:nonzero;stroke:none"
         id="path786"
         inkscape:connector-curvature="0" /><path
         d="m 458.6347,749.5534 0.171,1.222 h -0.354 c -0.128,0 -0.17,0.161 -0.155,0.268 l 0.318,2.274 c 0.227,1.619 -0.54,2.112 -1.902,2.112 -0.708,0 -1.515,-0.171 -1.952,-0.386 l -0.198,-1.415 c 0.447,0.364 1.281,0.654 1.753,0.654 0.558,0 0.899,-0.322 0.806,-0.987 l -0.194,-1.383 c -0.072,-0.515 10e-4,-0.911 0.324,-1.137 h -3.132 l -0.171,-1.222 z"
         style="fill:#21315f;fill-opacity:1;fill-rule:nonzero;stroke:none"
         id="path790"
         inkscape:connector-curvature="0" /><path
         d="m 466.5862,749.5534 0.503,3.592 c 0.249,1.78 -0.739,2.306 -2.24,2.306 -0.708,0 -1.948,-0.204 -2.554,-0.472 l -0.207,-1.48 c 0.729,0.461 1.663,0.772 2.424,0.772 0.923,0 1.158,-0.461 1.065,-1.126 l -0.503,-3.592 z m -3.571,0 0.476,3.399 -0.104,0.022 -0.849,-0.472 c -0.488,-0.268 -0.677,-0.622 -0.749,-1.137 l -0.253,-1.812 z"
         style="fill:#21315f;fill-opacity:1;fill-rule:nonzero;stroke:none"
         id="path794"
         inkscape:connector-curvature="0" /><path
         d="m 473.1011,752.4808 c 0.305,2.177 -0.975,2.992 -2.691,2.992 -0.836,0 -1.943,-0.247 -2.412,-0.536 l -0.223,-1.588 c -0.103,-0.739 0.501,-1.093 1.081,-1.394 h 0.236 l 0.306,2.188 c 0.228,0.172 0.692,0.268 0.96,0.268 0.74,0 1.312,-0.354 1.09,-1.941 -0.222,-1.587 -1.096,-1.93 -2.114,-1.93 -0.654,0 -1.438,0.375 -1.819,0.793 l -0.191,-1.361 c 0.526,-0.376 1.328,-0.547 2.143,-0.547 1.684,0 3.344,0.986 3.634,3.056"
         style="fill:#21315f;fill-opacity:1;fill-rule:nonzero;stroke:none"
         id="path798"
         inkscape:connector-curvature="0" /><path
         d="m 474.8582,749.5534 0.807,5.769 h -1.511 l -0.168,-1.201 -0.64,-4.568 z"
         style="fill:#21315f;fill-opacity:1;fill-rule:nonzero;stroke:none"
         id="path802"
         inkscape:connector-curvature="0" /><path
         d="m 481.2045,753.1027 0.311,2.22 h -1.534 l -0.357,-2.552 c -0.144,-1.03 -0.608,-1.738 -1.605,-2.199 l -0.051,0.097 c 0.495,0.547 0.643,1.222 0.572,1.716 l -0.414,2.938 h -1.576 l -0.024,-0.172 0.794,-4.9 c -0.322,-0.15 -1.039,-0.376 -1.408,-0.483 l -0.174,-1.244 h 0.043 c 2.036,0.687 5.031,1.78 5.423,4.579"
         style="fill:#21315f;fill-opacity:1;fill-rule:nonzero;stroke:none"
         id="path814"
         inkscape:connector-curvature="0" /><path
         d="m 487.1019,749.5534 0.533,3.807 c 0.223,1.597 -0.594,1.962 -1.881,1.962 h -3.377 l -0.161,-1.147 h 1.126 l -0.168,-0.129 c -0.448,-0.365 -0.693,-0.74 -0.754,-1.169 l -0.246,-1.758 c -0.051,-0.365 -0.404,-0.44 -0.651,-0.44 -0.129,0 -0.264,0.032 -0.374,0.086 l -0.17,-1.212 c 0.123,-0.043 0.414,-0.107 0.757,-0.107 0.826,0 1.732,0.268 1.908,1.522 l 0.45,3.217 h 1.19 c 0.644,0 0.913,-0.3 0.822,-0.943 l -0.516,-3.689 z"
         style="fill:#21315f;fill-opacity:1;fill-rule:nonzero;stroke:none"
         id="path818"
         inkscape:connector-curvature="0" /><path
         d="m 492.9116,749.5534 0.503,3.592 c 0.249,1.78 -0.739,2.306 -2.24,2.306 -0.708,0 -1.948,-0.204 -2.554,-0.472 l -0.207,-1.48 c 0.729,0.461 1.663,0.772 2.424,0.772 0.922,0 1.158,-0.461 1.065,-1.126 l -0.503,-3.592 z m -3.571,0 0.476,3.399 -0.104,0.022 -0.849,-0.472 c -0.488,-0.268 -0.677,-0.622 -0.749,-1.137 l -0.253,-1.812 z"
         style="fill:#21315f;fill-opacity:1;fill-rule:nonzero;stroke:none"
         id="path822"
         inkscape:connector-curvature="0" /><path
         d="m 501.6529,749.5534 0.533,3.807 c 0.224,1.597 -0.594,1.962 -1.881,1.962 h -3.377 l -0.161,-1.147 h 1.126 l -0.168,-0.129 c -0.448,-0.365 -0.693,-0.74 -0.753,-1.169 l -0.247,-1.758 c -0.051,-0.365 -0.405,-0.44 -0.651,-0.44 -0.129,0 -0.264,0.032 -0.374,0.086 l -0.17,-1.212 c 0.123,-0.043 0.414,-0.107 0.757,-0.107 0.826,0 1.732,0.268 1.908,1.522 l 0.45,3.217 h 1.19 c 0.644,0 0.913,-0.3 0.823,-0.943 l -0.517,-3.689 z"
         style="fill:#21315f;fill-opacity:1;fill-rule:nonzero;stroke:none"
         id="path826"
         inkscape:connector-curvature="0" /><path
         d="m 503.9778,749.5534 0.807,5.769 h -1.511 l -0.168,-1.201 -0.64,-4.568 z"
         style="fill:#21315f;fill-opacity:1;fill-rule:nonzero;stroke:none"
         id="path830"
         inkscape:connector-curvature="0" /><path
         d="m 510.0242,755.3224 h -4.632 l -0.168,-1.201 h 3.195 l -0.152,-0.086 c -0.487,-0.268 -0.785,-0.707 -0.857,-1.222 l -0.456,-3.26 h 1.501 l 0.639,4.568 h 0.762 z"
         style="fill:#21315f;fill-opacity:1;fill-rule:nonzero;stroke:none"
         id="path842"
         inkscape:connector-curvature="0" /><path
         d="m 514.5183,753.3708 0.273,1.952 h -1.49 l -0.533,-3.807 h 0.096 l 0.821,0.579 c 0.477,0.343 0.773,0.847 0.833,1.276 m 2.449,-0.89 0.398,2.842 h -1.502 l -0.424,-3.035 c -0.179,-1.276 -1.25,-1.651 -2.172,-1.651 h -1.695 l 0.656,4.686 h -1.512 l -0.807,-5.769 h 3.421 c 1.554,0 3.319,0.654 3.637,2.927"
         style="fill:#21315f;fill-opacity:1;fill-rule:nonzero;stroke:none"
         id="path846"
         inkscape:connector-curvature="0" /><path
         d="m 525.4875,749.5534 0.533,3.807 c 0.223,1.597 -0.594,1.962 -1.881,1.962 h -3.378 l -0.16,-1.147 h 1.126 l -0.168,-0.129 c -0.448,-0.365 -0.694,-0.74 -0.754,-1.169 l -0.246,-1.758 c -0.051,-0.365 -0.405,-0.44 -0.651,-0.44 -0.129,0 -0.264,0.032 -0.374,0.086 l -0.17,-1.212 c 0.123,-0.043 0.414,-0.107 0.757,-0.107 0.826,0 1.732,0.268 1.908,1.522 l 0.45,3.217 h 1.19 c 0.644,0 0.912,-0.3 0.822,-0.943 l -0.516,-3.689 z"
         style="fill:#21315f;fill-opacity:1;fill-rule:nonzero;stroke:none"
         id="path850"
         inkscape:connector-curvature="0" /><path
         d="m 527.751,749.5534 0.808,5.769 h -1.512 l -0.168,-1.201 -0.64,-4.568 z"
         style="fill:#21315f;fill-opacity:1;fill-rule:nonzero;stroke:none"
         id="path854"
         inkscape:connector-curvature="0" /><path
         d="m 533.1124,753.3708 0.273,1.952 h -1.49 l -0.533,-3.807 h 0.096 l 0.821,0.579 c 0.477,0.343 0.773,0.847 0.833,1.276 m 2.449,-0.89 0.398,2.842 h -1.501 l -0.425,-3.035 c -0.179,-1.276 -1.25,-1.651 -2.172,-1.651 h -1.694 l 0.656,4.686 h -1.512 l -0.808,-5.769 h 3.421 c 1.554,0 3.319,0.654 3.637,2.927"
         style="fill:#21315f;fill-opacity:1;fill-rule:nonzero;stroke:none"
         id="path866"
         inkscape:connector-curvature="0" /><path
         d="m 539.8944,749.5534 0.528,3.775 c 0.227,1.619 -0.615,2.112 -1.988,2.112 -0.708,0 -1.536,-0.172 -1.974,-0.386 l -0.198,-1.415 c 0.437,0.364 1.304,0.654 1.786,0.654 0.708,0 0.952,-0.322 0.856,-1.008 l -0.522,-3.732 z"
         style="fill:#21315f;fill-opacity:1;fill-rule:nonzero;stroke:none"
         id="path870"
         inkscape:connector-curvature="0" /></g><g
       id="g2546"
       style="fill:#21315f;fill-opacity:1;stroke:none"
       transform="matrix(0.99639741,0,0,0.99639741,-392.10331,-702.83452)"><path
         d="m 444.8073,741.2196 0.679,4.851 h 0.635 l -0.679,-4.851 z"
         style="fill:#21315f;fill-opacity:1;fill-rule:nonzero;stroke:none"
         id="path874"
         inkscape:connector-curvature="0" /><path
         d="m 447.4518,742.6568 c 0.126,-0.663 0.548,-0.99 1.27,-0.99 0.76,0 1.19,0.35 1.265,0.881 0.027,0.198 -0.021,0.359 -0.151,0.478 -0.125,0.121 -0.284,0.206 -0.469,0.256 l -0.925,0.238 c -0.245,0.065 -0.444,0.145 -0.592,0.232 -0.149,0.096 -0.26,0.243 -0.343,0.432 -0.09,0.19 -0.111,0.402 -0.077,0.649 0.057,0.408 0.256,0.736 0.595,0.976 0.339,0.24 0.749,0.363 1.227,0.363 0.878,0 1.406,-0.4 1.577,-1.208 l -0.597,-0.18 c -0.027,0.294 -0.147,0.499 -0.36,0.648 -0.208,0.143 -0.447,0.214 -0.711,0.214 -0.264,0 -0.502,-0.071 -0.728,-0.207 -0.218,-0.135 -0.352,-0.333 -0.386,-0.581 -0.048,-0.342 0.175,-0.576 0.674,-0.705 l 0.87,-0.216 c 0.8,-0.196 1.163,-0.648 1.065,-1.342 -0.058,-0.422 -0.268,-0.772 -0.62,-1.055 -0.351,-0.276 -0.806,-0.414 -1.371,-0.414 -1.008,0 -1.607,0.458 -1.804,1.388 z"
         style="fill:#21315f;fill-opacity:1;fill-rule:nonzero;stroke:none"
         id="path886"
         inkscape:connector-curvature="0" /><path
         d="m 454.7668,741.2196 -0.594,2.091 h -1.361 l -0.292,-2.091 h -0.592 l 0.679,4.851 h 1.909 c 0.521,0 0.888,-0.144 1.098,-0.431 0.215,-0.284 0.296,-0.59 0.248,-0.933 -0.036,-0.262 -0.143,-0.502 -0.314,-0.742 -0.17,-0.238 -0.423,-0.404 -0.75,-0.506 l 0.633,-2.239 z m -0.637,2.609 c 0.329,0 0.582,0.086 0.769,0.256 0.187,0.171 0.296,0.384 0.331,0.64 0.035,0.249 -0.023,0.438 -0.172,0.579 -0.15,0.134 -0.353,0.205 -0.617,0.205 h -1.321 l -0.235,-1.68 z"
         style="fill:#21315f;fill-opacity:1;fill-rule:nonzero;stroke:none"
         id="path890"
         inkscape:connector-curvature="0" /><path
         d="m 459.5883,741.2196 -0.286,1.406 h -1.767 l -0.629,-1.406 h -0.536 l 2.252,4.851 h 0.713 l 0.902,-4.851 z m -0.764,4.148 -1.046,-2.26 h 1.452 z"
         style="fill:#21315f;fill-opacity:1;fill-rule:nonzero;stroke:none"
         id="path894"
         inkscape:connector-curvature="0" /><path
         d="m 464.5773,741.2196 h -3.143 l 0.679,4.851 h 3.078 l -0.078,-0.562 h -2.444 l -0.21,-1.499 h 1.939 l -0.073,-0.519 h -1.939 l -0.24,-1.716 h 2.509 z"
         style="fill:#21315f;fill-opacity:1;fill-rule:nonzero;stroke:none"
         id="path898"
         inkscape:connector-curvature="0" /><path
         d="m 468.8728,741.2196 h -2.877 l 0.68,4.851 h 0.649 l -0.602,-4.296 h 2.228 z"
         style="fill:#21315f;fill-opacity:1;fill-rule:nonzero;stroke:none"
         id="path902"
         inkscape:connector-curvature="0" /><path
         d="m 475.0857,741.2196 -0.286,1.406 h -1.767 l -0.629,-1.406 h -0.536 l 2.252,4.851 h 0.713 l 0.902,-4.851 z m -0.764,4.148 -1.046,-2.26 h 1.452 z"
         style="fill:#21315f;fill-opacity:1;fill-rule:nonzero;stroke:none"
         id="path906"
         inkscape:connector-curvature="0" /><path
         d="m 476.9315,741.2196 0.679,4.851 h 0.634 l -0.679,-4.851 z"
         style="fill:#21315f;fill-opacity:1;fill-rule:nonzero;stroke:none"
         id="path910"
         inkscape:connector-curvature="0" /><path
         d="m 482.1755,741.2196 -0.594,2.091 h -1.361 l -0.292,-2.091 h -0.592 l 0.679,4.851 h 1.909 c 0.521,0 0.888,-0.144 1.098,-0.431 0.215,-0.284 0.296,-0.59 0.248,-0.933 -0.037,-0.262 -0.143,-0.502 -0.314,-0.742 -0.17,-0.238 -0.423,-0.404 -0.75,-0.506 l 0.633,-2.239 z m -0.637,2.609 c 0.329,0 0.582,0.086 0.769,0.256 0.187,0.171 0.295,0.384 0.331,0.64 0.035,0.249 -0.023,0.438 -0.172,0.579 -0.15,0.134 -0.353,0.205 -0.617,0.205 h -1.321 l -0.235,-1.68 z"
         style="fill:#21315f;fill-opacity:1;fill-rule:nonzero;stroke:none"
         id="path922"
         inkscape:connector-curvature="0" /><path
         d="m 484.3683,741.2196 0.679,4.851 h 1.721 c 0.536,0 0.918,-0.144 1.132,-0.445 0.215,-0.292 0.299,-0.627 0.246,-1.006 -0.058,-0.414 -0.244,-0.756 -0.566,-1.032 -0.316,-0.277 -0.698,-0.415 -1.149,-0.415 h -1.155 l -0.273,-1.953 z m 2.069,2.487 c 0.285,0 0.525,0.085 0.718,0.249 0.194,0.17 0.312,0.398 0.35,0.668 0.033,0.242 -0.015,0.455 -0.138,0.639 -0.13,0.176 -0.334,0.275 -0.626,0.275 h -1.134 l -0.256,-1.831 z"
         style="fill:#21315f;fill-opacity:1;fill-rule:nonzero;stroke:none"
         id="path926"
         inkscape:connector-curvature="0" /><path
         d="m 489.3201,741.854 c -0.281,0.486 -0.371,1.081 -0.273,1.782 0.103,0.731 0.368,1.332 0.798,1.817 0.437,0.479 0.949,0.719 1.552,0.719 0.603,0 1.05,-0.24 1.348,-0.713 0.297,-0.473 0.396,-1.06 0.296,-1.776 -0.097,-0.687 -0.354,-1.281 -0.78,-1.795 -0.427,-0.508 -0.949,-0.762 -1.581,-0.762 -0.624,0 -1.079,0.24 -1.36,0.728 m 2.5,0.362 c 0.29,0.379 0.474,0.874 0.559,1.478 0.086,0.619 0.031,1.098 -0.163,1.44 -0.194,0.341 -0.497,0.512 -0.896,0.512 -0.405,0 -0.752,-0.185 -1.047,-0.557 -0.296,-0.372 -0.487,-0.86 -0.571,-1.464 -0.083,-0.589 -0.027,-1.069 0.164,-1.433 0.19,-0.37 0.492,-0.547 0.897,-0.547 0.413,0 0.767,0.185 1.057,0.571"
         style="fill:#21315f;fill-opacity:1;fill-rule:nonzero;stroke:none"
         id="path930"
         inkscape:connector-curvature="0" /><path
         d="m 497.0137,741.2196 -0.594,2.091 h -1.361 l -0.292,-2.091 h -0.592 l 0.68,4.851 h 1.908 c 0.521,0 0.889,-0.144 1.098,-0.431 0.215,-0.284 0.297,-0.59 0.248,-0.933 -0.036,-0.262 -0.143,-0.502 -0.314,-0.742 -0.17,-0.238 -0.422,-0.404 -0.75,-0.506 l 0.633,-2.239 z m -0.637,2.609 c 0.329,0 0.582,0.086 0.769,0.256 0.187,0.171 0.295,0.384 0.331,0.64 0.035,0.249 -0.023,0.438 -0.172,0.579 -0.15,0.134 -0.353,0.205 -0.617,0.205 h -1.321 l -0.235,-1.68 z"
         style="fill:#21315f;fill-opacity:1;fill-rule:nonzero;stroke:none"
         id="path934"
         inkscape:connector-curvature="0" /><path
         d="m 500.0573,741.2196 0.6,4.289 h -1.384 l 0.079,0.562 h 3.396 l -0.079,-0.562 h -1.384 l -0.601,-4.289 z"
         style="fill:#21315f;fill-opacity:1;fill-rule:nonzero;stroke:none"
         id="path938"
         inkscape:connector-curvature="0" /><path
         d="m 503.554,742.6568 c 0.126,-0.663 0.549,-0.99 1.27,-0.99 0.76,0 1.19,0.35 1.265,0.881 0.028,0.198 -0.021,0.359 -0.151,0.478 -0.125,0.121 -0.283,0.206 -0.469,0.256 l -0.925,0.238 c -0.245,0.065 -0.444,0.145 -0.592,0.232 -0.148,0.096 -0.26,0.243 -0.343,0.432 -0.09,0.19 -0.111,0.402 -0.077,0.649 0.057,0.408 0.256,0.736 0.596,0.976 0.338,0.24 0.748,0.363 1.226,0.363 0.879,0 1.406,-0.4 1.577,-1.208 l -0.597,-0.18 c -0.027,0.294 -0.147,0.499 -0.36,0.648 -0.208,0.143 -0.447,0.214 -0.711,0.214 -0.264,0 -0.502,-0.071 -0.728,-0.207 -0.218,-0.135 -0.352,-0.333 -0.386,-0.581 -0.048,-0.342 0.175,-0.576 0.674,-0.705 l 0.871,-0.216 c 0.799,-0.196 1.162,-0.648 1.065,-1.342 -0.059,-0.422 -0.269,-0.772 -0.621,-1.055 -0.351,-0.276 -0.806,-0.414 -1.371,-0.414 -1.008,0 -1.607,0.458 -1.804,1.388 z"
         style="fill:#21315f;fill-opacity:1;fill-rule:nonzero;stroke:none"
         id="path950"
         inkscape:connector-curvature="0" /><path
         d="m 513.0675,741.2196 -0.286,1.406 h -1.767 l -0.629,-1.406 h -0.537 l 2.253,4.851 h 0.713 l 0.902,-4.851 z m -0.764,4.148 -1.046,-2.26 h 1.452 z"
         style="fill:#21315f;fill-opacity:1;fill-rule:nonzero;stroke:none"
         id="path954"
         inkscape:connector-curvature="0" /><path
         d="m 518.8724,746.0709 -0.443,-3.167 c -0.088,-0.629 -0.312,-1.087 -0.664,-1.364 -0.351,-0.276 -0.777,-0.414 -1.284,-0.414 -1.128,0 -1.584,0.549 -1.411,1.782 l 0.443,3.163 h 0.634 l -0.443,-3.167 c -0.052,-0.374 -0.045,-0.63 0.018,-0.785 0.07,-0.148 0.182,-0.253 0.342,-0.331 0.168,-0.072 0.341,-0.107 0.534,-0.107 0.741,0 1.177,0.362 1.298,1.227 l 0.443,3.163 z"
         style="fill:#21315f;fill-opacity:1;fill-rule:nonzero;stroke:none"
         id="path966"
         inkscape:connector-curvature="0" /><path
         d="m 520.7455,741.2196 0.6,4.289 h -1.384 l 0.079,0.562 h 3.396 l -0.079,-0.562 h -1.384 l -0.601,-4.289 z"
         style="fill:#21315f;fill-opacity:1;fill-rule:nonzero;stroke:none"
         id="path970"
         inkscape:connector-curvature="0" /><path
         d="m 526.8434,741.2196 0.321,2.292 h -2.206 l -0.321,-2.292 h -0.634 l 0.679,4.851 h 0.634 l -0.279,-1.996 h 2.205 l 0.28,1.996 h 0.627 l -0.679,-4.851 z"
         style="fill:#21315f;fill-opacity:1;fill-rule:nonzero;stroke:none"
         id="path974"
         inkscape:connector-curvature="0" /><path
         d="m 529.5588,741.854 c -0.28,0.486 -0.371,1.081 -0.273,1.782 0.103,0.731 0.368,1.332 0.798,1.817 0.437,0.479 0.95,0.719 1.552,0.719 0.603,0 1.05,-0.24 1.348,-0.713 0.297,-0.473 0.396,-1.06 0.296,-1.776 -0.097,-0.687 -0.354,-1.281 -0.78,-1.795 -0.427,-0.508 -0.949,-0.762 -1.581,-0.762 -0.624,0 -1.079,0.24 -1.36,0.728 m 2.5,0.362 c 0.29,0.379 0.474,0.874 0.559,1.478 0.086,0.619 0.031,1.098 -0.163,1.44 -0.194,0.341 -0.497,0.512 -0.896,0.512 -0.405,0 -0.752,-0.185 -1.047,-0.557 -0.296,-0.372 -0.486,-0.86 -0.571,-1.464 -0.082,-0.589 -0.027,-1.069 0.164,-1.433 0.191,-0.37 0.492,-0.547 0.897,-0.547 0.413,0 0.767,0.185 1.057,0.571"
         style="fill:#21315f;fill-opacity:1;fill-rule:nonzero;stroke:none"
         id="path986"
         inkscape:connector-curvature="0" /><path
         d="m 537.2524,741.2196 -0.594,2.091 h -1.361 l -0.292,-2.091 h -0.592 l 0.68,4.851 h 1.908 c 0.521,0 0.889,-0.144 1.098,-0.431 0.215,-0.284 0.297,-0.59 0.248,-0.933 -0.036,-0.262 -0.143,-0.502 -0.314,-0.742 -0.17,-0.238 -0.422,-0.404 -0.75,-0.506 l 0.633,-2.239 z m -0.637,2.609 c 0.329,0 0.582,0.086 0.769,0.256 0.187,0.171 0.295,0.384 0.331,0.64 0.035,0.249 -0.023,0.438 -0.172,0.579 -0.15,0.134 -0.353,0.205 -0.617,0.205 h -1.321 l -0.235,-1.68 z"
         style="fill:#21315f;fill-opacity:1;fill-rule:nonzero;stroke:none"
         id="path990"
         inkscape:connector-curvature="0" /><path
         d="m 539.4455,741.2196 0.679,4.851 h 0.635 l -0.68,-4.851 z"
         style="fill:#21315f;fill-opacity:1;fill-rule:nonzero;stroke:none"
         id="path994"
         inkscape:connector-curvature="0" /><path
         d="m 542.7015,741.2196 0.6,4.289 h -1.384 l 0.079,0.562 h 3.395 l -0.078,-0.562 h -1.384 l -0.601,-4.289 z"
         style="fill:#21315f;fill-opacity:1;fill-rule:nonzero;stroke:none"
         id="path998"
         inkscape:connector-curvature="0" /><path
         d="m 547.8147,743.2543 -0.284,-2.035 h -0.635 l 0.287,2.038 -1.232,2.814 h 0.746 l 0.965,-2.206 1.586,2.203 0.589,0.003 z"
         style="fill:#21315f;fill-opacity:1;fill-rule:nonzero;stroke:none"
         id="path1002"
         inkscape:connector-curvature="0" /></g></g></svg>