<svg width="66" height="35" viewBox="0 0 66 35" fill="none" xmlns="http://www.w3.org/2000/svg"><g clip-path="url(#clip0_214_8005)"><path d="M20.7716 24.1081C20.7716 24.2597 20.7835 24.4023 20.8042 24.53L22.3136 32.255C22.3582 32.4511 22.4116 32.6442 22.4859 32.8195L22.5186 32.8849C22.887 33.7524 23.5941 34.4269 24.4706 34.7626C24.5895 34.8072 24.7083 34.8399 24.8272 34.8815C24.8391 34.8815 24.8599 34.8815 24.8807 34.8934C25.0203 34.926 25.1629 34.9587 25.3026 34.9706C25.4422 34.9914 25.5848 35.0033 25.7363 35.0033H25.7482C25.8998 35.0033 26.0424 34.9914 26.182 34.9706C26.3246 34.9587 26.4643 34.926 26.6039 34.8934C26.6247 34.8934 26.6366 34.8934 26.6574 34.8815C26.7762 34.8369 26.8951 34.8042 27.0139 34.7626C27.2754 34.6527 27.525 34.5131 27.7508 34.3615C28.0865 34.1119 28.3896 33.8178 28.6302 33.4732L28.966 32.8968C28.9778 32.876 28.9868 32.8522 28.9986 32.8195L43.0818 8.44132C44.4812 6.02281 43.6464 2.88529 41.2278 1.48589L39.8492 0.692593C37.4307 -0.718697 34.2932 0.116192 32.8938 2.54658L25.7334 14.9362L21.0033 23.1277C20.9261 23.2584 20.8726 23.4218 20.831 23.5822C20.7864 23.7457 20.7656 23.918 20.7656 24.1022L20.7716 24.1081Z" fill="#FB2576"></path><path d="M16.2699 3.90463C16.4482 3.99376 16.6235 4.09181 16.8018 4.18391C23.8048 7.8295 30.7245 14.1402 32.8519 25.0562C32.8608 25.0948 32.8638 25.1185 32.8756 25.1542L32.9321 25.4662C32.9321 25.5107 32.9321 25.5553 32.9291 25.6028C32.9261 25.6474 32.9053 25.6949 32.8994 25.7425C32.8816 25.8673 32.8638 25.9891 32.8222 26.1169C32.7716 26.2595 32.7182 26.3902 32.6558 26.5061L28.7279 33.3248C28.6239 33.4942 28.5081 33.6635 28.3803 33.8032L28.3298 33.8537C27.6999 34.5549 26.8145 34.9649 25.8756 34.9976C25.7479 34.9976 25.6261 34.9916 25.4983 34.9946C25.4894 34.9916 25.4686 34.9827 25.4448 34.9887C25.3022 34.9738 25.1566 34.959 25.0199 34.9233C25.0081 34.9233 24.9932 34.9144 24.9813 34.9144C24.8536 34.8906 24.7288 34.8609 24.601 34.8163H24.5921C24.4495 34.7629 24.3188 34.7064 24.191 34.641C24.0603 34.5846 23.9385 34.5073 23.8166 34.4331C23.7958 34.4271 23.7869 34.4212 23.7691 34.4063C23.6711 34.3261 23.5671 34.2578 23.469 34.1775C23.2581 33.9904 23.0679 33.7764 22.9015 33.5595C22.6698 33.2238 22.4856 32.8584 22.3697 32.4632C22.3667 32.4513 22.3608 32.4424 22.3578 32.4305L22.2271 31.7769C22.2241 31.7531 22.2211 31.7293 22.2211 31.6937L20.8574 24.7531L20.8009 24.4738L20.795 24.459C19.9868 20.9263 16.1095 5.102 0 0.00946637C0 0.00946637 7.78438 -0.350041 16.2699 3.90463Z" fill="#FB2576"></path><path d="M38.3194 23.5822C38.361 23.4217 38.4174 23.2672 38.4947 23.1246L50.3822 2.54354C51.7846 0.119092 54.9161 -0.715798 57.3376 0.686579L58.7103 1.47987C61.1347 2.88225 61.9696 6.01383 60.5672 8.43531L46.1216 33.4612C45.4828 34.3823 44.4221 34.9913 43.2217 34.9913C41.543 34.9913 40.1436 33.8177 39.793 32.2519L38.2896 24.524C38.2629 24.3903 38.248 24.2507 38.248 24.1021C38.248 23.9209 38.2688 23.7426 38.3194 23.5762V23.5822Z" fill="#FB2576"></path></g><defs><clipPath id="clip0_214_8005"><rect width="85.696" height="35" fill="white"></rect></clipPath></defs></svg>